<?xml version="1.0" encoding="UTF-8"?>
<svg xmlns="http://www.w3.org/2000/svg" xmlns:xlink="http://www.w3.org/1999/xlink" width="500pt" height="500pt" viewBox="0 0 500 500" version="1.1">
<g id="surface1">
<rect x="0" y="0" width="500" height="500" style="fill:rgb(92.199707%,12.199402%,15.299988%);fill-opacity:1;stroke:none;"/>
<path style=" stroke:none;fill-rule:nonzero;fill:rgb(100%,100%,100%);fill-opacity:1;" d="M 125.664063 231.957031 C 122.699219 231.957031 101.542969 231.957031 101.542969 231.957031 L 94.285156 291.066406 L 109.570313 291.066406 L 115.101563 246.03125 L 122.75 246.03125 C 128.132813 246.03125 129.925781 250.644531 129.5 254.085938 C 128.964844 258.464844 123.492188 263.390625 117.863281 260.882813 L 121.6875 275.59375 C 133.808594 274.101563 142.210938 264.335938 143.683594 253.851563 C 145.621094 240.039063 133.699219 231.957031 125.664063 231.957031 "/>
<path style=" stroke:none;fill-rule:nonzero;fill:rgb(100%,100%,100%);fill-opacity:1;" d="M 172.523438 261.640625 C 168.097656 261.640625 164.949219 258.054688 165.492188 253.625 C 166.035156 249.199219 170.066406 245.613281 174.492188 245.613281 C 178.917969 245.613281 182.066406 249.199219 181.519531 253.625 C 180.976563 258.054688 176.949219 261.640625 172.523438 261.640625 Z M 176.195313 231.714844 C 164.097656 231.714844 153.082031 241.523438 151.59375 253.625 C 150.109375 265.726563 158.714844 275.539063 170.816406 275.539063 C 182.917969 275.539063 193.933594 265.726563 195.417969 253.625 C 196.90625 241.523438 188.300781 231.714844 176.195313 231.714844 "/>
<path style=" stroke:none;fill-rule:nonzero;fill:rgb(100%,100%,100%);fill-opacity:1;" d="M 222.46875 231.957031 C 210.265625 231.714844 203.351563 245.328125 203.015625 248.066406 L 199.617188 275.742188 L 214.394531 275.742188 C 214.394531 275.742188 216.585938 257.925781 217.113281 253.625 C 217.640625 249.324219 222.257813 246.109375 225.617188 246.109375 C 228.980469 246.109375 233.828125 246.109375 233.828125 246.109375 L 229.882813 231.957031 L 222.46875 231.957031 "/>
<path style=" stroke:none;fill-rule:nonzero;fill:rgb(100%,100%,100%);fill-opacity:1;" d="M 262.152344 231.953125 L 263.78125 218.664063 L 247.65625 223.902344 L 246.667969 231.957031 L 237.195313 231.957031 L 240.476563 246.109375 L 244.304688 246.109375 L 240.628906 276.058594 L 256.109375 276.058594 L 259.796875 246.03125 L 275.671875 246.03125 L 272.160156 231.953125 L 262.152344 231.953125 "/>
<path style=" stroke:none;fill-rule:nonzero;fill:rgb(100%,100%,100%);fill-opacity:1;" d="M 298.5625 251.894531 L 293.964844 232.035156 L 279.265625 232.035156 L 287.894531 275.742188 L 280.460938 291.066406 L 295.238281 291.066406 L 323.449219 231.953125 L 307.890625 231.953125 L 298.5625 251.894531 "/>
<path style=" stroke:none;fill-rule:nonzero;fill:rgb(100%,100%,100%);fill-opacity:1;" d="M 89.425781 208.929688 C 83.992188 208.929688 79.050781 213.332031 78.386719 218.765625 C 77.71875 224.195313 81.582031 228.597656 87.011719 228.597656 C 92.441406 228.597656 97.382813 224.195313 98.050781 218.765625 C 98.714844 213.332031 94.855469 208.929688 89.425781 208.929688 "/>
<path style=" stroke:none;fill-rule:nonzero;fill:rgb(100%,100%,100%);fill-opacity:1;" d="M 47.921875 263.949219 C 42.492188 263.949219 37.546875 268.355469 36.882813 273.78125 C 36.214844 279.214844 40.078125 283.613281 45.507813 283.613281 C 50.9375 283.613281 55.878906 279.214844 56.546875 273.78125 C 57.214844 268.355469 53.351563 263.949219 47.921875 263.949219 "/>
<path style=" stroke:none;fill-rule:nonzero;fill:rgb(100%,100%,100%);fill-opacity:1;" d="M 72.542969 237.484375 C 71.386719 237.546875 66.652344 237.699219 65.371094 237.71875 C 62.578125 237.757813 60.507813 235.308594 60.832031 232.660156 C 61.242188 229.324219 64.214844 227.304688 66.699219 227.332031 C 68.832031 227.355469 73.253906 227.34375 73.253906 227.34375 L 70.246094 210.847656 C 54.011719 208.890625 44.183594 223.902344 43.429688 232.503906 C 42.289063 245.4375 52.484375 254.59375 61.886719 254.4375 C 66.820313 254.355469 68.996094 254.320313 68.996094 254.320313 C 71.53125 254.359375 73.808594 256.449219 73.4375 259.480469 C 72.972656 263.253906 69.585938 264.953125 67.828125 264.953125 C 66.066406 264.953125 61.648438 264.953125 61.648438 264.953125 L 64.660156 281.019531 C 73.210938 282.128906 90.375 276.363281 91.519531 258.503906 C 92.691406 240.21875 75.085938 237.351563 72.542969 237.484375 "/>
<path style=" stroke:none;fill-rule:nonzero;fill:rgb(100%,100%,100%);fill-opacity:1;" d="M 460.566406 231.957031 L 452.332031 231.957031 L 453.972656 218.613281 L 436.980469 224.609375 L 436.0625 231.957031 L 426.835938 231.957031 L 430.171875 246.03125 L 434.339844 246.03125 L 430.652344 276.058594 L 446.917969 276.058594 L 450.578125 246.238281 L 463.191406 246.238281 L 460.566406 231.957031 "/>
<path style=" stroke:none;fill-rule:nonzero;fill:rgb(100%,100%,100%);fill-opacity:1;" d="M 350.914063 235.1875 C 349.144531 235.1875 344.519531 235.1875 344.519531 235.1875 L 345.746094 225.183594 C 345.746094 225.183594 350.007813 225.183594 351.921875 225.183594 C 355.035156 225.183594 356.871094 227.421875 356.507813 230.394531 C 356.097656 233.757813 352.6875 235.1875 350.914063 235.1875 Z M 363.132813 243.292969 C 366.789063 241.652344 372.84375 237.820313 374.179688 227.460938 C 375.304688 218.742188 367.085938 212.175781 359.421875 212.566406 C 353.976563 212.84375 331.59375 212.566406 331.59375 212.566406 L 323.835938 275.742188 L 339.613281 275.742188 L 342.714844 250.460938 L 350.246094 250.460938 C 353.3125 250.460938 355.019531 252.957031 354.605469 255.667969 C 354.128906 258.796875 351.597656 260.164063 349.253906 260.464844 C 348.746094 260.527344 345.414063 260.472656 345.414063 260.472656 L 347.339844 274.480469 C 360.671875 279.378906 371.253906 268.433594 372.390625 259.207031 C 373.394531 251.035156 368.546875 245.171875 363.132813 243.292969 "/>
<path style=" stroke:none;fill-rule:nonzero;fill:rgb(100%,100%,100%);fill-opacity:1;" d="M 395.386719 248.808594 C 396.328125 246.335938 399.0625 243.835938 403.230469 243.835938 C 407.792969 243.839844 408.820313 247.335938 408.992188 248.808594 Z M 405.378906 230.8125 C 392.710938 230.8125 380.648438 239.621094 378.863281 254.164063 C 377.84375 262.460938 382.84375 276.058594 399.195313 276.058594 C 411.003906 276.058594 416.089844 272.40625 419.1875 269.410156 L 408.335938 260.09375 C 407.394531 261.304688 404.472656 263.015625 400.613281 263.015625 C 398.003906 263.015625 394.535156 261.402344 393.078125 257.503906 L 423.25 257.503906 C 427.3125 243.835938 418.277344 230.8125 405.378906 230.8125 "/>
</g>
</svg>
